<?xml version="1.0" encoding="utf-8"?>
<!-- Generator: Adobe Illustrator 21.0.2, SVG Export Plug-In . SVG Version: 6.00 Build 0)  -->
<svg version="1.1" id="Layer_1" xmlns="http://www.w3.org/2000/svg" xmlns:xlink="http://www.w3.org/1999/xlink" x="0px" y="0px"
	 viewBox="0 0 216 113.3" style="enable-background:new 0 0 216 113.3;" xml:space="preserve">
<style type="text/css">
	.st0{font-family:'Arial-BoldMT';}
	.st1{font-size:10.2705px;}
	.st2{fill:none;}
</style>
<text transform="matrix(0.9916 0 0 1 4.2031 104.8154)" class="st0 st1">Microbial Signal Transduction Database 3.0</text>
<path class="st2" d="M157.5,53.1c-0.1-0.4-0.4-0.6-0.7-0.7v1.4C157.2,53.8,157.6,53.6,157.5,53.1z"/>
<path class="st2" d="M83,40.8C83,40.8,82.9,40.8,83,40.8c0.1,0.2,0.3,0.4,0.5,0.6v-0.7c-0.2,0-0.4,0-0.6,0
	C82.9,40.7,83,40.8,83,40.8z"/>
<path class="st2" d="M82.2,39.1c0.4,0,0.9,0,1.3,0v-1.6c-0.5-0.3-0.9-0.7-1.3-1V39.1z"/>
<path class="st2" d="M171.2,53c-0.5-0.2-1,0.3-1.3,0.6c-0.4,0.4,1.1,1.4,1.5,1.6c0.5,0.4,1.1,0.7,1.7,0.8c0.1,0,0.2,0,0.3,0v-1.5
	c-0.5-0.2-0.8-0.4-1.2-0.7C171.8,53.7,171.6,53.2,171.2,53z"/>
<path class="st2" d="M82.2,27.7v6.7c0.4,0.4,0.9,0.8,1.3,1.1v-7.8H82.2z"/>
<path class="st2" d="M83.5,24.1c0-0.7,0.6-1.2,1.2-1.2h2.5v-1.4h-2.4c-0.7,0-1.2-0.6-1.2-1.2v1.4h-1.4v6h1.3V24.1z"/>
<path class="st2" d="M171.8,51.8c0,0.7,0.9,1.1,1.6,1.4v-1.3C172.8,51.8,172.3,51.6,171.8,51.8z"/>
<path class="st2" d="M106.7,61.9v2.2c0.1,0,0.3-0.1,0.4-0.1c0.4-0.1,0.8-0.3,1-0.6v-1.3c0,0-0.1,0-0.1-0.1
	C107.5,61.7,107.2,61.6,106.7,61.9z"/>
<path class="st2" d="M156.8,27.7h2.6c-0.6-0.3-1.2-1-1.2-1.6v-4.4h-1.4L156.8,27.7L156.8,27.7z"/>
<path class="st2" d="M106.8,38.7c0.2-0.3,0.5-0.6,0.8-0.9c0.2-0.1,0.3-0.2,0.5-0.3v-9.8h-1.4v11.2C106.7,38.8,106.8,38.7,106.8,38.7
	z"/>
<path class="st2" d="M158.2,55.5c0.6-0.1,0.8-0.7,0.5-1.2c-0.2-0.4-0.5-0.5-0.9-0.2s-0.7,0.4-1,0.5v0.8
	C157.3,55.4,157.8,55.6,158.2,55.5z"/>
<path class="st2" d="M107.2,40.1c0.2,0.3,0.6,0.3,0.9,0.2v-2c-0.1,0-0.1,0-0.2,0.1C107.4,38.7,106.7,39.5,107.2,40.1z"/>
<path d="M81.1,39.2c-0.5,0-0.9-0.1-1.3-0.1l0,0C80.2,39.2,80.6,39.2,81.1,39.2C81,39.2,81.1,39.2,81.1,39.2z"/>
<path d="M81.1,40.9c-0.7,0-1.5-0.1-2.2-0.2c-1.9-0.3-3.5-1.1-4.8-2.5c-0.7-0.8-1.5-1.7-1.8-2.8c-0.1-0.4-0.2-0.8-0.1-1.2
	c0.1-0.3,0.3-1.1,0.8-1s0.6,1,0.8,1.3c0.2,0.4,0.5,0.8,0.8,1.2c0.6,0.8,1.2,1.5,2,2.1c0.9,0.7,1.9,1,3,1.2c-0.4-0.5-0.6-1-0.9-1.5
	c-0.4-0.7-0.8-1.5-1-2.3c-0.1-0.5-0.3-0.9-0.4-1.4c0-0.1-0.2-0.7-0.2-0.7c0.4-0.7,1.6,1.4,1.7,1.6c0.4,0.7,0.8,1.4,1.2,2.1
	c0.5,0.8,1,1.6,1.6,2.3c0.2,0,0.4,0,0.6,0v-2.7c-0.7-0.6-1.3-1.3-1.8-2s-1-1.5-1.3-2.3c-0.1-0.3-0.6-1-0.5-1.4
	c0.1-0.3,0.1-0.2,0.3,0c0.4,0.3,0.8,0.9,1.1,1.3c0.7,0.9,1.4,1.7,2.2,2.4v-6.7h-1h1v-6h-0.1v-1.9h0.1V5c0-0.8-0.5-1.3-1.3-1.3H47.5
	c-0.7,0-1.2,0.6-1.3,1.3l-2.9,23.6c0,0.8-0.3,1.3-0.5,1.3s-0.5-0.4-0.6-1.2L38.6,4.8c-0.1-0.7-0.6-1.2-1.2-1.2H5.2
	c-0.6,0-1,0.6-1,1.2v87.7c0,0.5,0.5,1.1,1,1.1v0.1h20.4c0.8,0,1.2-0.5,1.2-1.3V57.2c0-1,0.1-3.1,0.5-3.1s0.9,1.9,1.3,3.9l5.5,34.3
	c0.2,0.8,0.7,1.3,1.3,1.3H49c0.6,0,1.2-0.3,1.3-1l6.2-36.8c0.3-1.9,0.6-2.4,0.8-2.4c0.3,0,0.4,0.3,0.4,1.3v37.7
	c0,0.8,0.6,1.3,1.3,1.3h21.9c0.7,0,1.3-0.5,1.3-1.2V41.9C81.8,41.6,81.5,41.3,81.1,40.9L81.1,40.9z"/>
<path d="M210.7,3.6h-51.4c-0.7,0-1.1,0.5-1.1,1.2v15h0.1v1.9h-0.1v4.4c0,0.6,0.6,1.3,1.2,1.6h10.1h-10.1c0.1,0.1,0.3,0.1,0.4,0.1h12
	c0.9,0,1.6,0.6,1.6,1.4v21.4c0.2,0,0.5-0.1,0.7-0.2c0.6-0.1,1.2-0.2,1.8-0.3c1.2-0.2,2.4-0.4,3.7-0.4c0.7,0,1.4,0,2.1,0.1
	c1.6,0.3,3.2,1.1,4.6,2.2c-0.5,0.1-1.2,0.2-1.7,0.3c0.2,0.1,0.4,0.3,0.6,0.5c0.3,0,0.6-0.1,0.9-0.1c0.5,0.4,1.1,0.9,1.5,1.4
	c0.1,0,0.1,0,0.2,0c-0.6-0.5-1.1-1-1.8-1.5c0.7-0.1,1.5-0.2,2.2-0.2c1.9,0,3.6,0.5,5.1,1.8c0.8,0.7,1.7,1.5,2.2,2.5
	c0.2,0.4,0.3,0.8,0.2,1.2c0,0.4-0.1,1.1-0.6,1.1s-0.7-0.9-1-1.2c-0.3-0.4-0.6-0.8-0.9-1.1c-0.7-0.7-1.4-1.3-2.2-1.8
	c-1-0.6-2.1-0.8-3.2-0.8c0.5,0.5,0.9,1,1.3,1.4c0.5,0.7,1,1.4,1.4,2.2c0.2,0.4,0.4,0.9,0.6,1.3c0,0.1,0.3,0.6,0.3,0.7
	c-0.2,0.8-1.8-1.2-1.9-1.4c-0.5-0.6-1-1.3-1.5-1.9c-0.8-0.6-1.5-1.3-2.1-1.9c-0.1,0-0.1,0-0.2,0c-0.2-0.2-0.4-0.4-0.6-0.6
	c-1.3,0.2-2.7,0.4-4,0.6c-0.3,0.1-0.7,0.1-1,0.2c-1.3,0.2-2.6,0.2-4,0.3c-0.9,0-1.7,0-2.5-0.3h-0.1V56c1.3,0.2,2.7-0.4,4-0.7
	c0.9-0.3,1.8-0.5,2.7-0.6s1.8-0.1,2.7,0.1c2,0.4,3.7,1.7,5.1,3.1c0.6,0.6,1.2,1.3,1.6,2c0.2,0.3,0.7,0.9,0.7,1.3
	c0,0.3-0.1,0.2-0.3,0.1c-0.5-0.3-0.9-0.8-1.3-1.1c-2.6-2.4-5.5-4.5-9.3-3.9c-1.6,0.3-3.1,0.8-4.7,0.8c-0.4,0-0.8,0-1.2-0.1v34.9
	c0,1,0.9,1.7,1.7,1.7h20.4c1,0,1.7-0.8,1.7-1.6V29.5c0-1.1,0.6-1.7,1.4-1.7h12c1,0,1.7-0.7,1.7-1.7V5C212.3,4.1,211.5,3.6,210.7,3.6
	z"/>
<path d="M176.6,53.5c2-0.2,4-0.5,6-0.9c0.5-0.1,1.2-0.2,1.7-0.4c-1.2-1-2.6-1.3-4.1-1.2c-1.3,0.1-2.6,0.5-3.9,0.7
	c-0.8,0.1-1.6,0.2-2.4,0.2c-0.2,0-0.3,0-0.5,0v1.3c0.1,0,0.2,0.1,0.3,0.1C174.6,53.6,175.6,53.6,176.6,53.5z"/>
<polygon class="st2" points="83.6,21.7 83.6,20.3 83.6,19.8 82.2,19.8 82.2,21.7 "/>
<rect x="82.1" y="19.8" width="0.1" height="1.9"/>
<path class="st2" d="M106.6,20.8v0.9h1.5v-1.9h-1.4v0.5C106.7,20.5,106.7,20.6,106.6,20.8z"/>
<rect x="156.8" y="19.8" class="st2" width="1.4" height="1.9"/>
<rect x="158.2" y="19.8" width="0.1" height="1.9"/>
<path d="M86.5,39c0.4,0,0.8,0,1.3,0c1.3,0,2.5,0.1,3.7,0.3c0.9,0.1,1.7,0.2,2.5,0.6c0.4,0.2,0.8,0.5,1.2,0.9c0.3,0.3,0.5,0.8,0.9,1
	c0.4,0.3,1-0.1,1.4-0.4c0.4-0.4-0.9-1.5-1.2-1.8c-0.4-0.5-1-0.9-1.6-1.1c-1.4-0.5-2.9-0.2-4.3,0c-0.8,0.1-1.7,0.2-2.5,0.2
	c-1,0-1.9-0.1-2.9-0.5c-0.5-0.2-1-0.5-1.5-0.8V39C84.5,39.1,85.5,39.1,86.5,39z"/>
<path d="M106,65.3c-0.6-0.1-0.8-0.6-0.3-0.9c0.3-0.1,0.6-0.2,1-0.3v-2.2c0,0-0.1,0-0.1,0.1c-0.5,0.5-0.9,1.2-1.5,1.6
	c-0.4,0.2-1.4,0.3-1.5-0.2c-0.2-0.5,1-0.7,1.4-0.8s0.8-0.3,1.1-0.6c1-1-0.6-2.2-1.4-1.1c-0.6,0.7-0.9,1.5-1.9,1.8
	c-0.5,0.1-1.8,0.1-1.5-0.7c0.2-0.6,1.3-0.4,1.8-0.5c0.4-0.1,1-0.3,1.2-0.7c0.3-0.5,0-1.2-0.5-1.4s-0.9,0.3-1.2,0.7
	c-0.5,0.7-1.2,1.1-2,1.3c-0.3,0.1-1.3,0.3-1.4-0.3c0-0.6,1.4-0.7,1.7-0.9c0.5-0.2,0.9-0.4,1.2-0.8c0.4-0.6,0.4-1.1-0.2-1.4
	c-1.1-0.6-1.6,1-2.3,1.5c-0.3,0.2-2.3,1.1-2.1,0.1s2-1.1,2.7-1.7c0.8-0.6,0.1-1.9-0.8-1.4c-0.5,0.2-0.8,0.8-1.2,1.1
	c-0.4,0.4-0.9,0.7-1.5,0.7c-0.3,0-0.8,0.1-0.9-0.4c0-0.4,0.6-0.7,0.9-0.9c0.6-0.3,2.6-0.8,1.9-1.9c-0.7-1-1.6,0.2-2.2,0.4
	c-0.3,0.1-1.3,0.3-1.2-0.3c0-0.4,0.8-0.8,1.1-0.9c0.2-0.1,0.7,0,0.8-0.2c0.4-0.4-0.8-1.4-1-1.7c-0.7-0.8-1.3-1.7-1.6-2.8
	c-0.2-0.7-0.1-1.4-0.1-2.2c0-0.7,0-1.3,0.2-2c0.2-0.6,0.5-1.2-0.3-1.4c-0.5-0.2-1.1-0.1-1.6-0.1c-0.6,0-1.2,0-1.9,0.1
	c-1.2,0-2.5,0.1-3.7-0.1c-0.7-0.1-1.4-0.2-2-0.4s-1.1-0.4-1.6-0.7l0.1,49.6c0,0.6,0.5,1.2,1.2,1.2h20.7c0.6,0,1.2-0.5,1.2-1.2V65.3
	C106.5,65.3,106.2,65.4,106,65.3z"/>
<path d="M86.7,42.6c1.3,0,2.6-0.1,3.9-0.1c0.8,0,1.6,0,2.4,0.1c0.7,0.1,1.4,0.5,2.1,0.4c0.1-0.8-1-1.5-1.6-1.8
	c-0.9-0.4-1.9-0.5-2.8-0.6c-2-0.1-4-0.1-6.1,0c-0.3,0-0.7,0-1.1,0.1v0.7C84.4,42.1,85.4,42.5,86.7,42.6z"/>
<path d="M87.2,23v-0.1h-2.5c-0.6,0-1.2,0.5-1.2,1.2v3.6h23.2v-3.6c0-0.6-0.5-1.2-1.2-1.2H89.1V23H87.2z"/>
<path d="M83.5,35.5c1.4,1.1,3.1,1.7,5.1,1.7c1.6,0,3.2-0.4,4.8-0.2c1.7,0.2,3.1,1.1,4.5,2.2c0.3,0.2,0.7,0.4,0.9,0.7
	c0.5,0.5,0.7,0,1.2-0.3c0.2-0.2,0.5-0.3,0.8-0.4c0.6-0.1,1.2-0.1,1.8-0.1c0.6,0,1.2,0.2,1.8,0.3c0.5,0.1,1.1,0.5,1.6,0.3
	c0.3-0.1,0.4-0.3,0.6-0.6c0-0.1,0.1-0.1,0.1-0.2V27.7H83.5V35.5z"/>
<path d="M110.4,64.4c0.4-0.6-0.1-1.4-0.8-1.5c-0.7-0.1-1,0.7-1.4,1.2l-0.1,0.1v1.4c0.3-0.1,0.7-0.2,1-0.3
	C109.6,65.1,110.2,64.9,110.4,64.4z"/>
<path d="M145.7,28.4c-0.3,0.7,1.2,1.1,1.6,0.9c0.7-0.4,1.1-1.5,2-1.4c0.4,0.1,0.6,0.5,0.4,0.8c-0.3,0.5-0.9,0.5-1.3,0.6
	c-0.7,0.2-0.8,0.9-0.3,1.4c0.7,0.5,1.5-0.3,2-0.7c0.4-0.3,0.9-0.7,1.4-0.6c0.4,0,0.6,0.3,0.3,0.6c-0.4,0.4-1.2,0.4-1.6,0.6
	c-1.1,0.4-0.7,1.7,0.4,1.6c1.1-0.1,1.1-1.7,2-2.1c0.3-0.1,1.1-0.2,1.3,0.2c0.2,0.4-0.3,0.6-0.6,0.8c-0.7,0.3-2.4,1-1.5,2
	s1.5-0.1,2-0.9c0.5-0.9,1.5-1.6,2.5-1.5c0.5,0.1,0.5,0.3,0.2,0.6c-0.4,0.4-1,0.6-1.5,0.8s-1,0.6-1.2,1.1c-0.3,0.7,0.3,1.4,1.1,1.4
	c0.7,0,0.9-0.8,1.2-1.3c0.2-0.3,0.4-0.7,0.7-0.9v-4.7h-9.2C147.1,28.1,145.9,27.8,145.7,28.4z"/>
<path d="M108.1,62.1v1.3C108.5,62.9,108.6,62.4,108.1,62.1z"/>
<path d="M156.3,33.9c-0.3,0.5-0.3,1.1,0.3,1.4c0.1,0,0.1,0,0.2,0.1v-1.9C156.6,33.6,156.4,33.7,156.3,33.9z"/>
<path d="M145.8,27.7h-1.3C144.8,27.9,145.4,27.9,145.8,27.7z"/>
<path d="M126.9,25.1c2.2-3.3,6.3-4.6,10-3c1.8,0.7,3.3,2.1,4.7,3.3c0.2,0.2,0.5,0.5,0.8,0.3c0.1,0,0.2-0.1,0.3-0.2
	c0.6-0.2,0.1,0.7,0.1,0.8c0.8,1.1,1.2,0.2,2-0.4c0.3-0.2,0.8-0.5,1.2-0.4c0.3,0.1,0.3,0.4,0,0.6c-0.5,0.4-2.2,0.4-1.8,1.3
	c0.1,0.2,0.2,0.3,0.3,0.4h1.3c0.2-0.1,0.3-0.1,0.5-0.2c0.3-0.2,1.8-1.2,1.6-0.2c0,0.2-0.1,0.3-0.3,0.4h9.2v-6v-1.9v-4.3
	c0-6.6-5.4-12.1-12-12.1h-24.7c-6.6,0-12,5.4-12,12.1v12.3h17.7C126,27,126.3,26,126.9,25.1z"/>
<path d="M156.2,55.5c0.2-0.1,0.4-0.1,0.6-0.1v-0.8c-0.2,0.1-0.4,0.1-0.7,0.1c-0.7,0-1.3-0.2-1.8-0.5c0.6-0.3,1.2-0.2,1.9-0.3
	c0.2,0,0.4,0,0.6,0v-1.4c-0.8-0.1-1.9,0.9-2.5,1c-0.8,0.1-1.6-0.2-2.3-0.5c0.8-0.2,1.5,0.1,2.3,0.1c0.4,0,0.9-0.3,0.6-0.8
	c-0.8-1.2-2.7,0.3-3.6,0.4c-0.2,0-1.7,0.2-1.3-0.4c0.3-0.4,1.6,0,2-0.1c0.3-0.1,0.8-0.3,0.7-0.6c0-0.4-0.8-0.5-1.1-0.5
	c-0.4-0.1-0.8,0.1-1.1,0.3c-0.6,0.4-1,0.9-1.8,0.8c-0.3,0-1.6-0.5-0.9-0.9c0.5-0.3,1.4,0.3,2,0.1c0.2-0.1,0.8-0.3,0.8-0.6
	s-0.2-0.3-0.4-0.4c-0.3-0.2-0.5-0.5-0.9-0.5c-0.3,0-0.6,0.4-0.9,0.5c-0.6,0.4-1.1,0.2-1.7,0.1c-0.2,0-1.3-0.2-1-0.7
	c0.3-0.4,1.3,0.2,1.7,0.1c0.2,0,0.7-0.2,0.8-0.4c0.3-0.4-0.9-1-1.3-0.9c-0.3,0-0.5,0.3-0.8,0.5c-0.6,0.4-1.3,0.3-1.9,0.1
	c-0.4-0.2-0.8-0.6-0.1-0.6c0.5-0.1,0.9,0.3,1.4,0.1c0.5-0.1,0.5-0.5,0.1-0.8c-0.8-0.7-1.2,0-2,0.3c-0.6,0.2-1.4,0.3-2,0.1
	c-0.8-0.2-0.3-0.6,0.3-0.5c0.7,0.1,1.4,0.5,1.9-0.2c0.3-0.4,0.1-0.5-0.3-0.7c-0.3-0.1-0.6-0.4-0.9-0.5c-0.4-0.1-0.4,0.2-0.7,0.4
	c-0.2,0.3-0.6,0.4-0.9,0.6c-0.7,0.3-1.4,0.2-2.1,0c0.8-0.5,1.8,0.1,2.7-0.6c0.3-0.3,0.4-0.6,0.2-0.9c-0.8-1-1.5-0.2-2.3,0.2
	c-0.5,0.3-1,0.4-1.5,0.3c-0.2,0-1.1-0.2-0.9-0.5c0.1-0.2,0.9,0,1.1,0c0.6,0.1,2.8-0.4,2-1.4c-0.2-0.3-0.9-0.7-1.3-0.6
	c-0.4,0.1-0.6,0.6-0.9,0.9c-1,1.1-2,0.9-3,0c0.8-0.4,3.2,0.1,3.1-1.3c0-0.6-0.5-1.1-1.1-0.9c-0.6,0.2-1,0.9-1.6,1.1
	c-0.8,0.3-1.5-0.3-2.2-0.7c0.8,0.1,1.9,0.1,2.6-0.5c0.8-0.7,0-1.6-0.6-2.1c-0.8-0.8-1.7-1.4-2.5-2.2s-1.6-1.6-2.4-2.3
	c-2.3-2.1-4.7-5-4.5-8.1h-17.7v9.8c0.5-0.2,1.1-0.1,1.7,0.2c0.3,0.1,1.2,0.8,0.4,0.8c-0.7,0-1.4-0.4-2.1-0.2v2
	c0.2-0.1,0.4-0.1,0.6-0.2c0.7-0.4,1.2-0.4,1.9-0.2c0.3,0.1,1.5,0.6,0.9,0.9c-0.5,0.3-1.4-0.3-2-0.3c-0.6,0.1-0.9,0.5-0.7,1.1
	c0.2,0.5,0.4,0.5,0.8,0.3c0.6-0.3,1-0.5,1.7-0.4c0.6,0.1,1.2,0.3,1.7,0.7c-0.6,0.2-1.2,0.1-1.9,0c-0.5,0-1.5-0.2-1.4,0.6
	c0.3,1.7,2.4,0.2,3.2,0.2s1.5,0.4,2.2,0.9c-0.8,0.1-1.5-0.3-2.3-0.4c-0.4,0-0.9,0.2-0.7,0.7c0.6,1.3,2.7,0.1,3.6,0.1
	c0.2,0,1.8,0.1,1.3,0.6c-0.3,0.4-1.5-0.2-2-0.2c-0.3,0-0.8,0.1-0.8,0.5s0.7,0.6,1,0.7c0.4,0.1,0.8,0,1.2-0.2
	c0.6-0.3,1.1-0.7,1.8-0.5c0.3,0.1,1.5,0.7,0.7,1c-0.5,0.2-1.3-0.5-1.9-0.4c-0.3,0-0.8,0.2-0.9,0.5s0.2,0.3,0.4,0.4
	c0.3,0.2,0.4,0.6,0.8,0.6c0.3,0,0.7-0.3,0.9-0.4c0.6-0.3,1.1-0.1,1.7,0.1c0.2,0.1,1.3,0.4,0.9,0.8c-0.3,0.3-1.3-0.3-1.7-0.4
	c-0.2,0-0.7,0.1-0.8,0.3c-0.3,0.4,0.8,1.1,1.1,1.1s0.6-0.2,0.8-0.3c0.7-0.3,1.3-0.2,1.9,0.2c0.4,0.2,0.7,0.7,0.1,0.7
	c-0.5,0-0.9-0.4-1.4-0.3c-0.6,0.1-0.6,0.4-0.3,0.8c0.7,0.8,1.2,0.2,2,0c0.6-0.2,1.4-0.1,2,0.2c0.7,0.3,0.2,0.7-0.4,0.5
	c-0.7-0.2-1.3-0.7-1.9-0.1c-0.3,0.3-0.1,0.5,0.2,0.7s0.5,0.5,0.8,0.6s0.5-0.1,0.7-0.3c0.3-0.3,0.6-0.3,1-0.5c0.8-0.2,1.4,0,2.1,0.3
	c-0.9,0.4-1.8-0.4-2.7,0.2c-0.4,0.2-0.5,0.5-0.3,0.9c0.7,1.1,1.4,0.5,2.3,0.1c0.5-0.2,1-0.2,1.6-0.1c0.2,0,1,0.3,0.8,0.6
	c-0.2,0.2-0.9-0.1-1-0.1c-0.6-0.1-2.8,0-2.2,1.1c0.2,0.3,0.8,0.8,1.2,0.8c0.4,0,0.7-0.5,1-0.8c1.1-0.9,2.1-0.6,3,0.4
	c-0.9,0.2-3.1-0.5-3.3,0.9c-0.1,0.6,0.4,1.1,1,1c0.7-0.1,1.1-0.8,1.8-0.9c0.8-0.1,1.5,0.5,2,1c-0.8-0.2-1.9-0.4-2.7,0.1
	c-0.9,0.6-0.2,1.6,0.3,2.2c0.7,0.9,1.5,1.6,2.1,2.6c0.6,0.9,1.3,1.8,2.1,2.7c0.7,0.8,1.4,1.5,2,2.4c0.5,0.8,0.7,1.7,1,2.5
	c0.3,0.9,0.4,1.7,0.4,2.6c0.3,2-0.5,3.9-1.8,5.3c-2.7,3-6.9,3.7-10.3,1.5c-0.9-0.6-1.7-1.3-2.4-2.1c-0.4-0.4-0.8-0.8-1.1-1.2
	c-0.3-0.3-0.5-0.6-0.7-0.9c-0.2-0.2-0.3-0.3-0.5-0.3s-0.3,0.2-0.5,0.1c-0.2-0.2,0-0.6,0.2-0.8c-0.6-1.2-1.2-0.3-2,0.1
	c-0.3,0.2-0.9,0.4-1.2,0.2c-0.3-0.2-0.2-0.4,0.1-0.6c0.5-0.3,2.2-0.1,2-1.1c-0.2-0.9-1.4-0.8-2-0.5c-0.3,0.1-2,0.9-1.6-0.1
	c0.4-0.9,1.9-0.1,2.3-0.8c0.4-0.6-1-1.3-1.5-1.1c-0.7,0.3-1.3,1.3-2.2,1.1c-0.4-0.1-0.5-0.5-0.3-0.9c0.3-0.4,0.9-0.3,1.4-0.4
	c0.7,0,0.9-0.8,0.5-1.3c-0.6-0.6-1.5,0.1-2.1,0.4c-0.4,0.2-1,0.6-1.5,0.4c-0.4-0.1-0.6-0.4-0.2-0.6c0.4-0.3,1.2-0.2,1.7-0.3
	c1.1-0.3,1-1.5-0.2-1.6c-1.1-0.1-1.3,1.5-2.3,1.8c-0.3,0.1-1.1,0.1-1.3-0.4c-0.1-0.4,0.4-0.6,0.7-0.7c0.7-0.2,2.5-0.6,1.8-1.8
	c-0.8-1.2-1.5-0.1-2.1,0.6c-0.5,0.7-1.4,1.2-2.2,1.2v14.9c0,6.6,5.4,12,12,12h24.7c6.6,0,12-5.4,12-12V56.2
	C156.3,56.1,155.8,55.9,156.2,55.5z"/>
<rect x="87.2" y="21.5" class="st2" width="1.9" height="1.4"/>
<rect x="87.2" y="22.9" width="1.9" height="0.1"/>
<path d="M83.6,20.3c0,0.6,0.5,1.2,1.2,1.2h2.4h1.9h16.4c0.5,0,0.9-0.3,1.1-0.7v-1h0.1V4.7c0-0.6-0.5-1.2-1.2-1.2H84.7
	c-0.6,0-1.2,0.5-1.2,1.2l0.1,15.1l0,0V20.3z"/>
<polygon points="83.6,19.8 83.6,19.8 83.6,20.3 "/>
<path d="M106.6,20.8c0.1-0.1,0.1-0.3,0.1-0.5v-0.5h-0.1V20.8z"/>
</svg>
