<?xml version="1.0" encoding="utf-8"?>
<!-- Generator: Adobe Illustrator 21.0.2, SVG Export Plug-In . SVG Version: 6.00 Build 0)  -->
<svg version="1.1" id="Layer_1" xmlns="http://www.w3.org/2000/svg" xmlns:xlink="http://www.w3.org/1999/xlink" x="0px" y="0px"
	 viewBox="0 0 1299 1735" style="enable-background:new 0 0 1299 1735;" xml:space="preserve">
<style type="text/css">
	.st0{fill:#BF2D32;}
	.st1{fill:#242021;}
	.st2{fill:#231F20;}
	.st3{fill:#252122;}
	.st4{fill:#FEFDFD;}
	.st5{fill:#FEFEFE;}
	.st6{fill:#BF2C32;}
	.st7{fill:#BE2A30;}
	.st8{fill:none;enable-background:new    ;}
</style>
<path class="st0" d="M260.9,378c2.3-53.9,14-105.7,37.6-154.3C342.4,133.5,410.7,68.7,503.3,30c36-15,73.5-24,112.3-27.3
	c2.5-0.2,5.3,0.4,7.4-1.7c18,0,36,0,54,0c6,2.8,12.6,2,18.8,2.7C752,10.3,804.4,28,852.5,57.6c81.4,50.1,137.6,120.7,168.2,211.4
	c10.6,31.3,16.7,63.6,18.5,96.6c0.2,4.1,0.6,8.3,1,12.4c0,0.7,0,1.3,0,2c0,3,0,6,0,9c-0.1,0.4-0.1,0.7-0.2,1.1c0,0,0.1-0.1,0.1-0.1
	c-7.7,0.1-15.4,0.1-23.2,0.2c-0.3-5.8-0.5-11.6-0.8-17.4c-1.4-35.5-8.3-69.9-20-103.4c-21.5-61.3-57-113.2-106-155.6
	C845.3,74.9,793.9,48.4,736,34.6c-21.7-5.2-43.7-8.6-66-9.4c-0.7,0-1.3,0-2,0c-24.7-1.7-49.1,0-73.5,3.7
	c-64.2,9.8-121.8,35-172.3,75.6c-62.9,50.5-104.9,114.9-125.9,192.9c-6.1,22.8-10,46.1-11.1,69.7c0,0.7,0,1.3,0,2
	c-0.4,7-0.7,14-1.1,21c-7.7,0-15.3-0.1-23-0.1C261,386,260.9,382,260.9,378z"/>
<path class="st1" d="M1300,1732c-15.7,0.1-31.3,0.1-47,0.2c-2.7,0-3.6-1-4.3-3.5c-8.3-29.4-16.8-58.7-25.3-88
	c-0.5-1.7-0.5-3.6-2.7-5.4c-2.7,7.6-5.2,14.8-7.9,22c-1.4,3.8-1.9,7.6-1.9,11.7c0.1,19.7,0,39.3,0.1,59c0,3.1-0.6,4.3-4,4.2
	c-12.3-0.2-24.7-0.2-37,0c-3,0-3.9-0.7-3.9-3.9c0.1-83.8,0.1-167.7,0-251.5c0-3.6,1.4-4,4.4-3.9c12,0.1,24,0.2,36,0
	c3.9-0.1,4.6,1.2,4.6,4.8c-0.1,31.7-0.1,63.3-0.1,95c0,1.7-0.5,3.6,0.6,5.6c2-0.9,2-2.9,2.6-4.4c10.7-31.6,21.4-63.1,31.9-94.7
	c1.5-4.6,3.3-6.5,8.6-6.3c13.1,0.5,26.3,0.3,39.5,0.1c3.9,0,5.3,0.3,3.5,4.7c-13.6,33.6-26.9,67.2-40.4,100.9
	c-1.2,2.9-1.3,5.5-0.4,8.6c13.8,46.3,27.5,92.7,41.3,139c0.4,1.3,0.1,3.1,1.8,3.8C1300,1730.7,1300,1731.3,1300,1732z"/>
<path class="st1" d="M247,1736c-0.2-1.4-1.4-1.2-2.3-1.3c-27.2-5.8-41.2-24.1-47.5-49.8c-2.1-8.6-2.9-17.4-2.9-26.2
	c-0.1-60.2,0-120.3-0.2-180.5c0-4,0.7-5.4,5.1-5.3c11.7,0.3,23.3,0.3,35,0c4.1-0.1,4.9,1.2,4.9,5c-0.1,62.7-0.1,125.3-0.1,188
	c0,7.9,1.1,15.6,6.2,22.1c7.1,9.2,21.7,8.4,28-1.4c5-7.8,5.5-16.7,5.5-25.4c0.2-61,0.2-122,0-183c0-4.5,1.2-5.5,5.5-5.3
	c11.7,0.3,23.3,0.2,35,0.1c2.5,0,3.9,0.3,3.9,3.4c-0.2,63.3,0,126.7-0.5,190c-0.1,15.4-3.9,30.3-12.5,43.5
	c-8.3,12.7-19.8,20.8-34.7,24c-2.2,0.5-4.6,0.6-6.4,2.1C261.7,1736,254.3,1736,247,1736z"/>
<path class="st2" d="M1,1473c34.3,0,68.7,0.1,103-0.2c5.3,0,6.3,1.6,6.1,6.4c-0.4,10.8-0.2,21.7,0,32.5c0.1,3.4-1,4.2-4.2,4.1
	c-7.5-0.2-15,0.3-22.5-0.2c-4.8-0.3-5.5,1.5-5.5,5.8c0.1,68.3,0,136.7,0.2,205c0,4.8-1.1,6.1-5.9,5.9c-11.5-0.4-23-0.3-34.5,0
	c-4.1,0.1-4.8-1.2-4.8-5c0.1-68.7,0-137.3,0.2-206c0-4.5-0.9-5.9-5.6-5.7c-8.8,0.5-17.6,0.3-26.5,0.3C1,1501.7,1,1487.3,1,1473z"/>
<path class="st2" d="M1298.9,391.1c-0.1,0.3-0.1,0.6,0.1,0.9c-15,20.8-30.2,41.6-45.1,62.5c-29.5,41.2-58.8,82.6-88.3,123.8
	c-56.2,78.7-112.5,157.3-168.7,236c-61.9,86.6-123.7,173.2-185.6,259.8c-43.8,61.3-87.5,122.6-131.2,183.9
	c-9.2,12.8-18.4,25.6-27.6,38.4c-0.6,0.8-1.3,1.5-2.1,2.4c-8.3-11.5-16.4-22.7-24.5-34.1c-26.2-36.7-52.3-73.5-78.5-110.2
	c-31.1-43.6-62.3-87.2-93.5-130.8C418.2,974,382.6,924.1,347,874.3c-53.6-75-107.3-150-160.9-225c-47.3-66.2-94.5-132.4-141.8-198.6
	c-13.5-18.9-27-37.7-40.6-56.6c-0.7-0.9-1.5-1.8-1.3-3.1c83.2,0,166.4,0,249.6-0.1c2,0,4-0.1,6-0.2c0.9,0.2,1.9,0.4,2.8,0.7
	c-0.5,14.3,0.6,28.5,2.1,42.7c4.5,42.5,16,83,34,121.7c13.9,29.7,31.3,57.1,52.2,82.5c15.6,18.9,32.8,36.1,51.4,51.9
	c3.8,3.2,7.3,7.3,12.4,8.8c0.4,0.7,0.8,1.3,1.2,2c-0.4,3,1,5.5,1.9,8.2c14.4,39.7,36.9,74,68.4,102.3c17.4,15.6,36.4,28.7,57.4,38.8
	c46.6,22.3,95.5,29.6,146.7,21.8c51.5-7.8,95.9-30.1,133.6-65.6c23.7-22.3,42.1-48.6,55.2-78.4c3.9-8.7,8.3-17.4,9.5-27.1
	c0.4-0.7,0.8-1.4,1.2-2c0.4-0.1,0.7-0.3,1.1-0.4c1.1-0.7,2.3-1.4,3.3-2.2c27-21.4,50.9-45.8,71.3-73.6
	c50.7-69.3,76.7-146.7,76.4-232.8l-0.1,0.1c0.2,0.2,0.5,0.4,0.7,0.6c7.5,0,15,0.1,22.5,0.1c76.4,0,152.8,0,229.2,0
	C1294.5,390.9,1296.7,391,1298.9,391.1z"/>
<path class="st3" d="M501.7,1599.8c8.3,3.7,15.7,8.2,22.1,14c9.9,9.1,16,20.3,17.5,33.7c2.3,20.1,0.2,39.3-12.9,55.7
	c-11.8,14.8-27.9,22.7-46.1,26.6c-7.8,1.7-15.8,2.4-23.8,2.3c-12.5-0.1-25-0.2-37.5,0.1c-4.7,0.1-6.1-0.9-6.1-5.9
	c0.2-57.6,0.1-115.3,0.1-172.9c0-25.3,0.1-50.6-0.1-76c0-3.8,1-4.8,4.7-4.6c16.6,0.5,33.3-0.7,49.9,1c18.5,2,35.8,6.9,50.1,19.5
	c14.5,12.7,19.3,29.4,19.1,47.9c-0.2,15.3-4.3,29.4-14.7,41.3c-5.1,5.8-11.3,10.1-17.9,14.1C504.9,1597.5,503.3,1597.9,501.7,1599.8
	z M460.5,1655.8c0,10,0.2,20-0.1,30c-0.1,4.2,1.4,5,5.1,4.7c19.8-1.5,31.7-15,31.4-35.8c-0.2-19.2-13-32.1-32.6-33.2
	c-3.1-0.2-4,0.7-4,3.8C460.6,1635.5,460.5,1645.7,460.5,1655.8z M460.5,1548.5C460.5,1548.5,460.5,1548.5,460.5,1548.5
	c0,10-0.1,20,0,30c0,1.4-0.8,3.2,2.1,3.5c12.3,1.1,25-6.7,29.3-18.3c2.2-6.1,2.3-12.4,2.2-18.7c-0.2-18.5-11.6-29.8-30.1-30
	c-2.8,0-3.7,0.7-3.6,3.6C460.6,1528.5,460.5,1538.5,460.5,1548.5z"/>
<path class="st1" d="M1063.8,1732.2c-6.3,0-12.7-0.1-19,0c-2.6,0.1-3.6-0.6-4-3.5c-2.1-14.1-4.7-28.1-6.8-42.2
	c-0.7-4.5-2.3-5.9-6.9-5.7c-10.8,0.4-21.7,0.2-32.5,0.1c-2.7,0-3.6,0.7-4,3.5c-2.1,14.4-4.7,28.8-6.8,43.3c-0.5,3.5-1.6,4.7-5.2,4.6
	c-11.7-0.3-23.3-0.2-35,0c-3.3,0-3.7-0.8-3.1-3.9c12.6-66.2,25.1-132.4,37.6-198.6c3.4-17.9,6.8-35.9,10.2-53.8
	c0.5-2.6,1.3-3.9,4.4-3.8c13.3,0.2,26.7,0.2,40,0c3.5-0.1,4.4,1.4,5,4.3c6.4,34.1,12.8,68.2,19.3,102.3
	c8.9,46.8,17.8,93.5,26.6,140.3c0.8,4.2,3.3,10,1.5,12.3c-2,2.7-8.1,0.6-12.4,0.8C1069.8,1732.3,1066.8,1732.2,1063.8,1732.2z
	 M1012.5,1557c-0.5,1.6-0.8,2.1-0.9,2.8c-4.3,25.9-8.5,51.8-12.8,77.7c-0.4,2.6,0.7,2.7,2.6,2.7c7,0,14-0.2,21,0.1
	c3.1,0.1,3.4-0.9,2.9-3.7C1021,1610.4,1016.9,1584.3,1012.5,1557z"/>
<path class="st1" d="M835.8,1624.4c0,34.3-0.1,68.6,0.1,102.9c0,3.9-0.9,5.1-4.9,5c-11.7-0.3-23.3-0.3-35,0c-4.2,0.1-5.1-1-5.1-5.2
	c0.1-68.3,0.1-136.6,0.1-204.9c0-6.4,0-6.5-6.6-6.5c-7.3,0-14.7-0.1-22,0c-2.5,0-3.5-0.6-3.5-3.3c0.1-12,0.1-24,0-36
	c0-3,1.1-3.6,3.8-3.6c33.6,0.1,67.3,0.1,100.9,0c2.8,0,3.6,0.8,3.6,3.6c-0.1,11.8-0.2,23.7,0,35.5c0.1,3.2-1,3.9-4,3.8
	c-7.7-0.2-15.3,0.2-23-0.2c-3.9-0.2-4.6,1.2-4.6,4.7C835.8,1555.1,835.8,1589.7,835.8,1624.4z"/>
<path class="st2" d="M673,1602.4c0,41.6-0.1,83.3,0.1,124.9c0,3.9-1,5-4.9,4.9c-12.2-0.3-24.3-0.2-36.5,0c-3.2,0.1-3.8-0.9-3.8-3.9
	c0.1-83.6,0.1-167.3,0-250.9c0-4,1.4-4.6,4.9-4.5c11.8,0.2,23.7,0.3,35.5,0c4.2-0.1,4.8,1.4,4.8,5.1C673,1519.5,673,1561,673,1602.4
	z"/>
<path class="st2" d="M649.3,1450.2c-6,0-12-0.1-18,0.1c-2.6,0.1-3.4-0.7-3.4-3.3c0.1-10.5,0.1-21,0-31.5c0-2.6,0.7-3.5,3.4-3.5
	c12.2,0.1,24.3,0.1,36.5,0c2.8,0,3.3,1,3.2,3.4c-0.1,10.5-0.1,21,0,31.5c0,2.5-0.6,3.5-3.3,3.4
	C661.6,1450,655.5,1450.2,649.3,1450.2z"/>
<path class="st2" d="M289.2,1450.2c-5.2,0-10.3-0.1-15.5,0.1c-2.6,0.1-3.8-0.3-3.8-3.4c0.2-10.5,0.1-21,0-31.4
	c0-2.6,0.7-3.5,3.4-3.5c10.6,0.1,21.3,0.1,31.9,0c2.7,0,3.8,0.7,3.8,3.6c-0.2,10.5-0.2,21,0,31.4c0,2.7-0.9,3.3-3.4,3.3
	C300.1,1450.1,294.7,1450.2,289.2,1450.2z"/>
<path class="st1" d="M228,1450.2c-5.3,0-10.7-0.1-16,0c-2.6,0.1-3.9-0.3-3.8-3.5c0.2-10.5,0.2-21,0-31.5c0-2.6,0.7-3.4,3.4-3.4
	c10.8,0.1,21.6,0.1,32.5,0c2.8,0,3.3,1,3.2,3.5c-0.1,10.5-0.1,21,0,31.5c0,2.5-0.5,3.5-3.3,3.4C238.6,1450,233.3,1450.2,228,1450.2z
	"/>
<path class="st4" d="M1040.2,380c0-0.7,0-1.3,0-2c0.6,0.1,1.4,0.2,1.4,1C1041.6,379.8,1040.8,379.9,1040.2,380z"/>
<path class="st5" d="M260.8,391.3c-0.9-0.2-1.9-0.4-2.8-0.7c0-3,0-5.9,0-8.9c0-2.1,0.6-3.6,2.9-3.8c0,4,0.1,8,0.1,12
	C261,390.4,260.9,390.9,260.8,391.3z"/>
<path class="st4" d="M670,25.2c-0.1,0.6-0.2,1.4-1,1.4c-0.8,0-0.9-0.8-1-1.4C668.7,25.1,669.3,25.2,670,25.2z"/>
<path class="st4" d="M285.2,367c0.6,0.1,1.4,0.2,1.4,1c0,0.8-0.8,0.9-1.4,1C285.1,368.3,285.2,367.7,285.2,367z"/>
<path class="st0" d="M886.9,701c-5.3,1.4-8.9,5.5-13.2,8.5c-41.7,29.1-87.3,49.4-137,60.7c-30.9,7.1-62.3,10.5-94,9.7
	c-46.9-1.2-92.3-10.1-135.9-27.5c-31.9-12.8-61.6-29.4-89.2-49.8c-1.1-0.8-2.1-1.7-3.5-1.6c-0.4-0.7-0.8-1.3-1.2-2
	c-1.8-8.2-3.7-16.5-5.4-24.7c-0.6-2.9-1-5.8-1.7-9.5c5,1.8,7.8,5.6,11.2,8.3c51.7,42.7,110.7,69.4,176.8,79.5
	c71.3,10.9,140.1,2,206.1-27.4c33.3-14.8,63.7-34.2,91.1-58.1c1.3-1.1,2.3-2.9,4.5-2.4c-2.2,10.4-4.4,20.8-6.6,31.1
	c-0.9,0.9-0.9,2-0.9,3.1C887.7,699.6,887.3,700.3,886.9,701z"/>
<path class="st6" d="M969.2,380c-0.4,10.3-0.4,10.3-10.9,10.3c-8.1,0-16.2-0.1-24.4-0.1c0-0.4-0.1-0.7-0.1-1.1
	c0.5-29.4-4.1-58.1-13.5-85.8c-29.6-86.7-87.5-146.3-172.9-179.2c-13.3-5.1-27-9.3-41.2-11.2c-0.4-0.1-0.7-0.3-1.1-0.4
	c-26.5-5.4-53.2-6.8-80.1-4.2c-0.5,0.2-1.1,0.4-1.6,0.5c-7.6-0.2-15.1,1.2-22.5,2.8c-0.3,0.1-0.6,0.2-1,0.3c-1.2,0.1-2.3,0-3.5,0.2
	c-17.9,3.6-35.5,8.4-52.4,15.6c-80.1,34-134.5,92-162.9,174.3c-6.5,18.7-10.9,38-12.1,57.8c-0.2,0.7-0.3,1.3-0.5,2
	c-1.1,9.3-1.6,18.7-1.5,28.1c-11.7,0-23.3,0-35,0.1c0-57.5,14.6-111.2,43.8-160.7c30.6-52,72.8-92.2,126.1-120.5
	c36.1-19.2,74.5-30.9,115.3-34.9c9.3-0.9,18.6-1.4,27.9-2.1c4.3,0,8.7,0,13,0.1c2.6,0.1,5.3,0.1,7.9,0.2c0.3,0.1,0.6,0.2,0.9,0.2
	c19.7,1.5,39.3,3.9,58.6,8.6c50,12.2,94.6,35,133.4,68.8c52.5,45.8,86.8,102.6,102.5,170.6c4.4,19,6.5,38.3,7.8,57.7
	C969.2,378.7,969.2,379.3,969.2,380z"/>
<path class="st6" d="M404.7,592.9c2.5-10.7,3.9-21.6,7.1-32.1c1-3.3,2-6.6,3.2-10.4c3.8,2.7,5.5,6.5,7.9,9.7
	c23,30.9,51.2,56,84.4,75.4c31.5,18.5,65.3,30.6,101.4,35.6c59.6,8.3,116.6-0.3,170.5-27.6c23.2-11.8,44.2-26.7,63.5-44.2
	c15.2-13.8,28.4-29.2,40.2-46c0.8-1.2,1.5-2.7,3.1-3c3.6,8.6,5.1,17.7,7.5,26.6c0.1,0.4,0.3,0.7,0.4,1.1c0.8,4.9,1.6,9.8,2.4,14.7
	c-0.1,0.4-0.1,0.7-0.2,1.1c-7.8,8.1-15.4,16.5-23.4,24.4c-46.4,45.3-101.5,74-165.2,85.5c-71.8,12.9-140.4,2.2-205.2-31.4
	c-33.3-17.3-62.3-40.4-87.8-68c-3.2-3.5-6-7.4-9.7-10.5C404.8,593.6,404.8,593.3,404.7,592.9z"/>
<path class="st1" d="M896.1,594c0.1-0.4,0.1-0.7,0.2-1.1c7.3-6.4,12.5-14.7,17.9-22.6c26.9-39.5,44.1-83,51.7-130.3
	c2.4-15,3.4-30.1,3.7-45.2c0.1-3.5,1.2-4,4.2-4c14.2,0.2,28.3,0.1,42.5,0.1c0.1,61.4-14.6,119.1-43.6,173.2
	C953,600.8,927.7,633,897,661c0.7-13.9,2.8-27.7,1.8-41.6C898.1,610.9,898.6,602.3,896.1,594z"/>
<path class="st3" d="M404.7,592.9c0.1,0.3,0.1,0.7,0.2,1c-2.4,8.8-2.2,17.9-2.6,26.9c-0.7,13.1,0.9,26.1,1.9,39.1l0.1-0.1
	c-1.6,1-2-0.7-2.7-1.3c-24.2-22.7-45.1-48-62.5-76.2c-24.3-39.4-40.5-81.9-48.7-127.3c-3.8-21.1-6-42.4-5.4-63.9
	c15.4,0,30.7,0,46.1,0c0.8,44.1,9,86.7,26.7,127.3c11.2,25.6,25.5,49.2,42.9,71.1C401.7,590.8,403.3,591.8,404.7,592.9z"/>
<path class="st3" d="M887,547c-2.4-0.2-1.9-2.4-2.4-3.7c-4.6-11.7-9-23.6-15.8-34.3c0.1-0.3,0-0.5,0-0.8
	c7.6-12.3,12.7-25.8,17.4-39.5c7.9-23.5,11.9-47.6,12.5-72.3c0.1-3.4,0.1-5.8,4.9-5.6c9.8,0.4,19.6,0,29.5,0
	c0.3,0.1,0.6,0.3,0.9,0.4c-0.6,43.4-9.8,84.8-28.9,123.9C899.7,526,893.3,536.5,887,547z"/>
<path class="st4" d="M658,71.9c-4.3,0-8.7,0-13-0.1C647.9,69.2,655.2,69.2,658,71.9z"/>
<path class="st4" d="M969.2,380c0-0.7,0-1.3,0-2c0.6,0.1,1.4,0.2,1.4,1C970.6,379.8,969.8,379.9,969.2,380z"/>
<path class="st4" d="M666.8,72.3c-0.3-0.1-0.6-0.2-0.9-0.2C666.2,72,666.5,72.1,666.8,72.3z"/>
<path class="st3" d="M404.2,659.9c0.1,0.2,0.2,0.5,0.3,0.7c-0.1,0-0.3-0.1-0.4-0.1c0.1-0.2,0.2-0.4,0.2-0.7
	C404.3,659.8,404.2,659.9,404.2,659.9z"/>
<path class="st4" d="M369,359.9c-0.2,0.7-0.3,1.3-0.5,2C368.6,361.2,368.8,360.5,369,359.9z"/>
<path class="st4" d="M706.2,112.9c-0.4-0.1-0.7-0.3-1.1-0.4C705.5,112.6,705.8,112.8,706.2,112.9z"/>
<path class="st4" d="M600.9,111.6c-0.3,0.1-0.6,0.2-1,0.3C600.2,111.8,600.5,111.7,600.9,111.6z"/>
<path class="st4" d="M625,108.3c-0.5,0.2-1.1,0.4-1.6,0.5C623.9,108.7,624.4,108.5,625,108.3z"/>
<path class="st7" d="M705,148.7c28.9,6.9,56.1,17.8,80.8,34.4c60.2,40.3,96.8,96.1,109.3,167.6c2,11.7,3,23.4,3.2,35.3
	c0,3.6-0.8,4.5-4.3,4.5c-23.7-0.1-47.3-0.1-71-0.1c-29.2,0-58.3,0-87.5,0c-1.8,0-3.6-0.4-5.7,0.7c1,1.9,2.9,2,4.4,2.6
	c57.1,21.1,101,58,131.7,110.6c0.8,1.4,1.3,3.1,2.9,3.9c0,0.3,0.1,0.5,0,0.8c-4.8,5.5-7.7,12.2-11.8,18.3
	c-23.2,34.7-53.2,62-90,81.8c-41,22.1-85,31.5-131.3,28.8c-49.5-2.9-94.4-19.6-134.2-49.5c-27.9-21-50.4-47-67.5-77.5
	c-0.4-0.7-0.9-1.4-1.4-2.1c0-0.2,0-0.4,0-0.6c0.7-0.9,1.5-1.8,2-2.8c12.9-22.6,28.8-42.7,48-60.4c24.1-22.2,51.4-38.9,82-50.5
	c2.4-0.9,7.1-0.8,6.7-3.4c-0.3-2.1-4.9-0.9-7.6-0.9c-53.6-0.1-107.3-0.1-160.9-0.2c0-58.5,18.7-110.3,55.4-155.6
	c35.2-43.5,80.4-71.5,134.8-84.8c21.3-5.2,43-7.1,64.9-6.7c1,0,2,0,3,0c14.3,0.9,28.4,3,42.4,5.3C704,148.3,704.5,148.5,705,148.7z"
	/>
<path class="st3" d="M432.7,508.2c-0.1,0.2-0.1,0.4,0,0.6c-6.2,7.9-9.1,17.4-13.1,26.5c-1.6,3.7-3,7.6-4.7,12
	c-9.8-14.3-17.5-29-24.2-44.2c-11.2-25.5-18.2-52.3-21.5-79.9c-1.2-10.5-1.4-21.2-2.1-31.8c11.6-0.9,23.2-0.2,34.9-0.4
	c0.2,4.3,0.5,8.6,0.6,12.9c1.3,31.1,8.8,60.6,21.4,89C426.4,498.2,428.1,504.1,432.7,508.2z"/>
<path class="st4" d="M661,142.8c-1,0-2,0-3,0c0.2-1,0.5-1.8,1.7-1.7C660.7,141.3,660.9,142.1,661,142.8z"/>
<path class="st4" d="M705,148.7c-0.5-0.2-1-0.4-1.5-0.6C703.9,148.3,704.5,148.5,705,148.7z"/>
<path class="st8" d="z"/>
</svg>
